<svg height="15" viewBox="0 0 21 15" width="21" xmlns="http://www.w3.org/2000/svg"><g fill="#800080"><rect height="3" rx="1.5" width="12.804878" x="4.097561"/><rect height="3" rx="1.5" width="12.804878" x="4.097561" y="6"/><rect height="3" rx="1.5" width="12.804878" x="4.097561" y="12"/><path d="m.93890427 14.4023603v-10.62018754h-.44991498c-.27614238 0-.50000001-.22385763-.50000001-.5 0-.0650488.01269291-.12947257.03736722-.18965998l1.04755467-2.55527353c.10474631-.25550503.39678773-.37771912.65229276-.2729728.12386466.05077929.2221935.14910814.2729728.2729728l1.04755467 2.55527353c.10474631.25550503-.01746777.54754645-.2729728.65229276-.06018742.02467431-.12461119.03736722-.18965999.03736722h-.44991498v10.62018754c0 .3300673-.2675724.5976397-.59763968.5976397-.33006728 0-.59763968-.2675724-.59763968-.5976397z"/><path d="m18.8657335 14.4023603v-10.62018754h-.4499149c-.2761424 0-.5-.22385763-.5-.5 0-.0650488.0126929-.12947257.0373672-.18965998l1.0475546-2.55527353c.1047464-.25550503.3967878-.37771912.6522928-.2729728.1238647.05077929.2221935.14910814.2729728.2729728l1.0475547 2.55527353c.1047463.25550503-.0174678.54754645-.2729728.65229276-.0601874.02467431-.1246112.03736722-.18966.03736722h-.449915v10.62018754c0 .3300673-.2675724.5976397-.5976397.5976397-.3300673 0-.5976397-.2675724-.5976397-.5976397z" transform="matrix(1 0 0 -1 0 15)"/></g></svg>